<svg version="1.2" xmlns="http://www.w3.org/2000/svg" width="756" height="291"><style>.s1{fill:#231f20}</style><g id="Artwork"><g id="&lt;Group&gt;"><g id="&lt;Group&gt;"><g id="&lt;Group&gt;"><path id="&lt;Compound Path&gt;" d="M347.1 267c.4 4.4 4.3 8.2 11.6 8.2 6.6 0 10.5-3.1 10.5-7.9 0-3.9-2.7-5.9-8.3-7.3l-8.4-2c-6.9-1.6-13.1-5.7-13.1-14.3 0-10.2 8.8-15.7 19.3-15.7 10.6 0 18.9 5.7 19.1 15.4h-8.9c-.3-4.3-3.7-7.9-10.3-7.9-5.9 0-9.8 2.8-9.8 7.4 0 3.4 2.4 5.7 7.3 6.8l8.4 2.1c7.9 1.8 14 5.5 14 14.6 0 10.4-8.3 16.4-20.5 16.4-14.8 0-19.8-8.6-20-15.8zm78.9 14.7h-33.2v-52.6H426v7.8h-24v14.4h22.6v7.4H402v15.2h24z" fill="#d71a26"/></g><g id="&lt;Group&gt;"><path id="&lt;Compound Path&gt;" fill-rule="evenodd" class="s1" d="M292.7 45.6h25.7l-32.3 116.2h-24.4l-21.4-79.5h-.4l-21.5 79.5h-24.1L161.9 45.6h25.7l19.1 82.9h.4l20.7-82.9h24.5l20.7 82.9h.4zm457.8 0v116.2h-24.4v-49.5h-47.3v49.5h-24.2V45.6h24.2v46.6h47.3V45.6zm-324.5 0h93.4v19.7h-34.7v96.5h-24V65.3H426zm-38.2 0l37.3 116.2h-25.8l-8.2-29.3h-36.8l-8.4 29.3h-24.1l37.4-116.2zm-1.8 69l-13-46.2h-.4l-13.3 46.2zm243.1-29.7v1.2h-23.2c0-11.5-7.2-21.6-22.6-21.6-16.6 0-24.8 10.9-24.8 32.7v13.1c0 22 8.2 32.4 24.8 32.4 16.7 0 22.6-9.4 22.6-21.5h23.2v2.2c0 21-15.4 39.7-46.2 39.7-30.6 0-48.7-19.3-48.7-52.8V97.2c0-33.1 18.1-53 48.9-53 28.6 0 46 18.1 46 40.7z"/></g></g><g id="&lt;Group&gt;"><path id="&lt;Path&gt;" class="s1" d="M133.7 59.4c-.7.5-17.3 10.1-17.1 30.2.2 23.9 21 31.9 21.2 32-.1.6-3.3 11.4-10.9 22.5-6.6 9.7-13.5 19.3-24.3 19.5-10.6.2-14-6.3-26.1-6.3-12.1 0-15.9 6.1-25.9 6.5-10.5.4-18.4-10.5-25-20.1-13.6-19.6-24-55.5-10.1-79.8 7-12 19.3-19.6 32.8-19.8 10.2-.2 19.9 6.9 26.1 6.9 6.2 0 17.3-8.3 30.3-7.3 5.1.4 19.6 1.9 29 15.7zM73.2 41.9c-1.2-9.1 3.3-18.5 8.4-24.5 5.7-6.7 15.3-11.6 23.3-12 1 9.3-2.7 18.6-8.2 25.3-5.6 6.7-14.6 11.9-23.5 11.2z"/></g></g></g></svg>